<?xml version="1.0" standalone="no"?>
<!DOCTYPE svg PUBLIC "-//W3C//DTD SVG 20010904//EN"
 "http://www.w3.org/TR/2001/REC-SVG-20010904/DTD/svg10.dtd">
<svg version="1.0" xmlns="http://www.w3.org/2000/svg"
 width="2288.000000pt" height="400.000000pt" viewBox="0 0 2288.000000 400.000000"
 preserveAspectRatio="xMidYMid meet">

<g transform="translate(0.000000,400.000000) scale(0.100000,-0.100000)"
fill="#000000" stroke="none">
<path d="M335 3509 c-132 -19 -258 -117 -307 -237 l-23 -57 0 -1215 0 -1215
23 -56 c29 -71 81 -132 155 -180 103 -67 162 -74 185 -24 7 14 43 146 82 293
38 147 103 393 144 547 40 154 70 281 66 283 -4 2 -44 -6 -88 -18 -123 -31
-158 -28 -201 18 -36 38 -188 322 -211 395 -20 64 5 110 115 215 200 191 443
317 724 373 122 24 319 36 348 21 11 -7 34 -35 51 -64 69 -122 188 -197 325
-205 82 -5 127 4 354 69 41 11 44 11 85 -20 24 -17 73 -52 109 -76 290 -195
471 -438 585 -783 58 -174 63 -166 -216 -355 -86 -58 -168 -107 -182 -110 -47
-9 -99 18 -169 88 -38 37 -70 66 -72 63 -5 -4 -187 -753 -187 -766 0 -4 154
-7 343 -6 289 1 349 4 387 17 105 39 177 102 225 197 53 104 53 99 47 1134
l-5 957 -43 19 c-23 11 -45 25 -47 32 -4 9 -6 9 -6 -1 -1 -11 -4 -11 -16 0
-34 31 -43 36 -49 31 -3 -4 -13 2 -21 13 -8 10 -15 15 -15 11 0 -4 -10 1 -22
12 -11 11 -25 18 -30 15 -4 -3 -8 -1 -8 4 0 8 -38 30 -50 29 -3 0 -18 12 -34
27 -16 14 -36 24 -43 21 -9 -3 -11 0 -7 7 5 8 2 9 -9 5 -10 -3 -17 -2 -17 3 0
6 -7 10 -15 10 -8 0 -15 5 -15 10 0 6 -9 10 -21 10 -11 0 -18 4 -15 9 5 7 -38
31 -61 34 -4 0 -17 9 -27 19 -11 10 -32 24 -48 30 -15 7 -28 16 -28 19 0 6
-30 17 -46 17 -3 1 -12 9 -21 19 -9 11 -12 12 -8 3 5 -12 4 -12 -7 1 -7 9 -19
14 -27 11 -8 -3 -11 0 -7 6 3 6 -3 14 -15 17 -12 4 -29 14 -40 23 -10 9 -25
17 -33 18 -8 1 -29 12 -46 24 -16 12 -30 18 -30 13 0 -4 -6 -1 -13 7 -15 20
-107 73 -107 63 0 -4 -4 -3 -8 2 -11 17 -69 55 -82 55 -6 0 -27 12 -46 26 -19
15 -34 23 -34 20 0 -4 -10 2 -22 13 -21 20 -33 20 -707 20 -377 -1 -713 -5
-746 -10z"/>
<path d="M8007 2805 c-45 -16 -83 -48 -104 -89 -22 -42 -13 -123 17 -164 70
-95 232 -95 301 1 24 33 29 50 29 98 0 51 -4 63 -32 95 -59 66 -133 87 -211
59z"/>
<path d="M4290 2560 l0 -150 210 0 210 0 0 -545 0 -545 185 0 185 0 0 545 0
545 210 0 210 0 0 150 0 150 -605 0 -605 0 0 -150z"/>
<path d="M7320 2448 l0 -262 -29 45 c-39 60 -77 94 -135 120 -138 60 -324 14
-420 -105 -85 -104 -118 -220 -118 -406 1 -253 79 -413 239 -492 73 -36 187
-49 260 -29 61 17 134 70 168 123 17 26 33 47 38 47 4 1 7 -37 7 -84 l0 -85
185 0 185 0 0 695 0 695 -190 0 -190 0 0 -262z m-70 -384 c51 -44 73 -98 78
-195 7 -143 -31 -230 -116 -266 -80 -33 -167 18 -196 116 -30 103 -14 263 32
316 34 41 65 55 118 55 42 0 59 -5 84 -26z"/>
<path d="M8450 2015 l0 -695 190 0 190 0 0 153 c0 152 0 153 28 186 l27 32
106 -183 105 -183 212 -3 c117 -1 212 0 212 3 0 2 -81 135 -180 294 l-181 290
176 226 c96 124 175 228 175 230 0 3 -93 4 -207 3 l-207 -3 -122 -168 c-67
-92 -126 -173 -133 -180 -8 -8 -11 77 -11 341 l0 352 -190 0 -190 0 0 -695z"/>
<path d="M11130 2015 l0 -695 470 0 470 0 0 150 0 150 -282 2 -283 3 -3 543
-2 542 -185 0 -185 0 0 -695z"/>
<path d="M16530 2443 c-1 -251 -2 -266 -17 -238 -71 134 -206 196 -358 165
-210 -43 -334 -238 -334 -525 0 -308 148 -516 380 -533 128 -9 231 37 291 130
l33 51 3 -87 3 -86 184 0 185 0 0 695 0 695 -185 0 -185 0 0 -267z m-90 -368
c111 -57 134 -328 37 -434 -54 -59 -141 -63 -202 -10 -47 42 -69 112 -68 221
1 151 60 238 161 238 24 0 56 -7 72 -15z"/>
<path d="M5855 2369 c-184 -31 -322 -152 -342 -299 l-6 -40 171 0 170 0 6 25
c20 81 212 88 232 8 19 -74 -34 -103 -223 -122 -252 -25 -364 -101 -392 -266
-30 -169 46 -307 192 -350 65 -19 209 -19 274 0 53 16 129 75 152 119 23 43
31 30 31 -49 l0 -75 170 0 170 0 0 393 0 392 -24 52 c-77 165 -325 255 -581
212z m218 -752 c-52 -90 -222 -102 -251 -19 -24 69 20 123 115 142 32 6 78 17
103 24 l45 12 3 -64 c2 -47 -2 -72 -15 -95z"/>
<path d="M9945 2366 c-173 -33 -305 -152 -331 -298 l-6 -38 171 0 c171 0 172
0 181 24 16 43 57 66 119 66 85 0 134 -46 111 -105 -14 -38 -62 -56 -194 -71
-212 -24 -281 -49 -353 -126 -57 -62 -77 -129 -71 -233 11 -173 110 -264 302
-273 152 -8 251 30 312 121 l29 42 3 -77 3 -78 175 0 175 0 -3 393 -3 392 -28
57 c-45 91 -128 153 -257 192 -75 23 -247 29 -335 12z m253 -656 c-6 -113 -58
-165 -165 -165 -59 0 -67 3 -89 28 -27 32 -32 82 -10 113 8 11 32 28 53 36 30
13 164 49 207 57 4 0 6 -30 4 -69z"/>
<path d="M12575 2370 c-112 -20 -200 -65 -259 -131 -40 -44 -80 -122 -90 -176
l-5 -33 173 0 174 0 6 25 c9 36 61 65 118 65 61 0 94 -16 108 -51 29 -69 -14
-103 -152 -120 -243 -30 -299 -46 -371 -109 -64 -57 -91 -123 -92 -230 0 -75
4 -92 30 -145 57 -115 155 -160 329 -153 89 3 108 7 156 33 34 19 68 48 90 78
l35 47 3 -75 3 -75 175 0 175 0 -3 403 c-3 460 0 439 -97 530 -86 80 -187 115
-351 122 -58 2 -127 0 -155 -5z m218 -753 c-10 -17 -38 -41 -62 -54 -104 -54
-216 -4 -196 88 9 42 56 76 122 89 32 6 78 17 103 24 l45 12 3 -64 c2 -47 -2
-71 -15 -95z"/>
<path d="M15213 2370 c-90 -19 -162 -71 -206 -148 l-32 -57 -5 100 -5 100
-177 3 -178 2 0 -525 0 -525 184 0 184 0 4 323 c4 371 4 372 91 416 81 40 164
14 201 -63 14 -29 16 -79 16 -355 l0 -321 186 0 185 0 -3 398 -3 397 -26 56
c-59 124 -166 197 -300 204 -41 2 -93 0 -116 -5z"/>
<path d="M17629 2367 c-66 -25 -98 -56 -132 -128 -17 -38 -35 -69 -39 -69 -5
0 -8 45 -8 100 l0 100 -180 0 -180 0 0 -525 0 -525 184 0 185 0 3 303 c3 301
3 302 28 345 47 83 136 113 268 89 l42 -7 0 154 c0 99 -4 157 -11 161 -22 14
-125 15 -160 2z"/>
<path d="M7887 2364 c-4 -4 -7 -241 -7 -526 l0 -518 190 0 190 0 -2 523 -3
522 -181 3 c-99 1 -183 -1 -187 -4z"/>
<path d="M13372 1973 l3 -398 27 -57 c35 -76 98 -142 167 -175 50 -25 66 -28
161 -28 85 0 114 4 151 22 63 28 120 82 149 140 l25 48 3 -102 3 -103 179 0
180 0 -2 523 -3 522 -185 0 -185 0 -5 -332 c-5 -315 -6 -333 -26 -360 -46 -63
-143 -82 -205 -40 -67 45 -69 55 -69 415 l0 322 -185 0 -186 0 3 -397z"/>
<path d="M17879 2365 c-3 -2 76 -244 174 -537 98 -293 181 -541 184 -550 3
-10 -5 -27 -21 -42 -27 -28 -82 -34 -143 -17 l-33 9 -41 -130 c-22 -71 -39
-132 -36 -134 11 -12 150 -34 213 -34 193 0 326 69 407 210 24 42 417 1190
417 1218 0 10 -42 12 -192 10 l-193 -3 -85 -357 c-47 -196 -88 -360 -92 -363
-8 -9 -8 -12 -88 335 -39 168 -76 324 -82 348 l-10 42 -188 0 c-102 0 -189 -2
-191 -5z"/>
</g>
</svg>
